<svg width="177" height="51" viewBox="0 0 177 51" fill="none" xmlns="http://www.w3.org/2000/svg">
<rect x="0.75" y="0.75" width="175.5" height="49.5" rx="24.75" stroke="#040F16" stroke-opacity="0.08" stroke-width="1.5"/>
<path d="M34.142 31L31.73 21.964L29.318 31H26.546L23.234 18.076H25.898L27.986 26.842L30.362 18.076H33.152L35.456 26.878L37.562 18.076H40.244L36.914 31H34.142ZM51.6681 31L50.6961 28.228H45.6741L44.6841 31H41.9301L46.7901 18.076H49.7781L54.6021 31H51.6681ZM48.2121 21.064L46.4481 26.05H49.9401L48.2121 21.064ZM67.2285 31H58.8765V18.076H61.6125V28.534H67.2285V31ZM80.159 31H71.807V18.076H74.543V28.534H80.159V31ZM89.3892 31.27C85.7532 31.27 82.9092 28.318 82.9092 24.52C82.9092 20.74 85.7532 17.806 89.3892 17.806C92.7912 17.806 95.4552 20.074 95.9052 23.386H93.0072C92.7012 21.532 91.2612 20.254 89.4252 20.254C87.2112 20.254 85.7172 22 85.7172 24.52C85.7172 27.058 87.2112 28.822 89.4252 28.822C91.2612 28.822 92.6832 27.526 93.0072 25.672H95.9052C95.4552 29.02 92.7912 31.27 89.3892 31.27ZM103.252 31H100.516V18.076H103.252V23.17H108.85V18.076H111.586V31H108.85V25.528H103.252V31ZM125.584 31L124.612 28.228H119.59L118.6 31H115.846L120.706 18.076H123.694L128.518 31H125.584ZM122.128 21.064L120.364 26.05H123.856L122.128 21.064ZM135.529 31H132.793V18.076H135.529V31ZM149.295 31L143.373 21.982V31H140.871V18.076H143.823L149.457 26.644V18.076H151.977V31H149.295Z" fill="#040F16"/>
<line x1="83" y1="37.25" x2="153" y2="37.25" stroke="#040F16" stroke-width="1.5"/>
</svg>
